<svg width="160" height="160" viewBox="0 0 160 160" fill="none" xmlns="http://www.w3.org/2000/svg" xmlns:xlink="http://www.w3.org/1999/xlink">
<path d="M80,0C35.84,0 0,35.84 0,80C0,124.16 35.84,160 80,160C124.16,160 160,124.16 160,80C160,35.84 124.16,0 80,0ZM80,32C95.44,32 108,44.56 108,60C108,75.44 95.44,88 80,88C64.56,88 52,75.44 52,60C52,44.56 64.56,32 80,32ZM80,144C63.76,144 44.56,137.44 30.88,120.96C44.4,110.4 61.44,104 80,104C98.56,104 115.6,110.4 129.12,120.96C115.44,137.44 96.24,144 80,144Z" fill="#000000"/>
</svg>
